<?xml version="1.0" encoding="UTF-8" standalone="no"?>

<svg version="1.1" id="Layer_1" x="0px" y="0px" viewBox="0 0 30.999998 31" xml:space="preserve" width="31" height="31"
   xmlns="http://www.w3.org/2000/svg">
   <path style="fill:white;"
      d="m 29.05,8.4 c 0,0 0,0 0,0 0,-0.3 -0.1,-0.6 -0.3,-0.8 0,0 0,0 0,0 0,0 0,0 -0.1,-0.1 0,0 -0.1,0 -0.1,-0.1 0,0 0,0 0,0 L 16.05,0.3 c 0,0 -0.1,0 -0.1,0 -0.1,-0.2 -0.3,-0.2 -0.5,-0.2 -0.1,0 -0.2,0 -0.3,0.1 -0.1,0 -0.1,0.1 -0.2,0.1 L 2.55,7.4 c 0,0 0,0 0,0 0,0 0,0 0,0 0,0 0,0 0,0 -0.2,0.1 -0.3,0.2 -0.3,0.2 0,0 0,0 0,0 -0.2,0.2 -0.3,0.5 -0.3,0.8 0,0 0,0 0,0 0,0 0,0 0,0 v 14.3 c 0,0.4 0.2,0.8 0.6,1 l 12.4,7.1 c 0,0 0,0 0.1,0 0,0 0,0 0,0 0.1,0 0.1,0.1 0.2,0.1 0,0 0,0 0,0 0.1,0 0.2,0 0.2,0 0.1,0 0.2,0 0.2,0 0,0 0,0 0,0 0.1,0 0.1,0 0.2,-0.1 0,0 0,0 0,0 0,0 0,0 0.1,0 l 12.4,-7.1 c 0.4,-0.2 0.6,-0.6 0.6,-1 z M 6.85,7.9 15.25,3.1 c 0.2,-0.1 0.4,-0.1 0.5,0 l 8.4,4.9 c 0.4,0.1 0.4,0.7 0,0.9 l -8.4,4.9 c -0.2,0.1 -0.4,0.1 -0.5,0 L 6.85,8.9 c -0.4,-0.2 -0.4,-0.8 0,-1 z m 7.2,18.5 c 0,0.4 -0.4,0.7 -0.8,0.5 L 4.85,22 c -0.2,-0.1 -0.3,-0.3 -0.3,-0.4 v -9.7 c 0,-0.4 0.4,-0.7 0.8,-0.5 l 8.4,4.9 c 0.2,0.1 0.3,0.3 0.3,0.5 z m 12.4,-4.8 c 0,0.2 -0.1,0.4 -0.3,0.5 l -8.4,4.9 c -0.4,0.2 -0.8,-0.1 -0.8,-0.5 v -9.7 c 0,-0.2 0.1,-0.4 0.3,-0.5 l 8.4,-4.9 c 0.4,-0.2 0.8,0.1 0.8,0.5 z"
      id="path1" />
</svg>
