<?xml version="1.0" standalone="no"?>
<!DOCTYPE svg PUBLIC "-//W3C//DTD SVG 20010904//EN"
 "http://www.w3.org/TR/2001/REC-SVG-20010904/DTD/svg10.dtd">
<svg version="1.0" xmlns="http://www.w3.org/2000/svg"
 width="700.000000pt" height="700.000000pt" viewBox="0 0 700.000000 700.000000"
 preserveAspectRatio="xMidYMid meet">
<metadata>
Created by potrace 1.14, written by Peter Selinger 2001-2017
</metadata>
<g transform="translate(0.000000,700.000000) scale(0.100000,-0.100000)"
fill="#000000" stroke="none">
<path d="M3731 6788 c0 -117 0 -222 0 -233 -1 -20 -7 -21 -233 -20 l-233 0 -3
-232 -2 -233 -232 -2 -233 -3 0 -230 0 -230 232 0 233 0 0 233 0 232 235 0
c181 0 235 3 236 13 0 6 1 111 2 232 l2 220 225 1 c124 1 228 2 231 3 3 0 6
103 5 229 l-1 227 -232 3 -232 2 0 -212z"/>
<path d="M2335 5601 c-3 -2 -5 -213 -5 -468 l0 -463 -468 0 -468 0 1 -226 c0
-124 -2 -229 -5 -233 -3 -4 -106 -7 -230 -7 l-225 1 -3 -233 -2 -232 -233 -2
-232 -3 0 -228 c0 -126 4 -231 9 -234 7 -5 269 -7 424 -4 l32 1 0 235 0 235
233 0 232 0 0 232 0 233 465 0 465 0 3 -233 2 -232 -229 0 c-174 0 -230 -3
-233 -12 -6 -21 -2 -447 4 -454 4 -3 108 -6 232 -6 l226 0 0 -464 c0 -435 1
-464 18 -465 9 0 218 -1 465 -1 l447 0 0 -233 0 -232 231 0 c171 0 232 3 236
12 2 7 5 111 6 231 l2 219 230 0 230 0 0 -465 0 -465 -210 -2 c-115 -1 -220
-2 -231 -2 -22 -1 -22 -3 -22 -226 0 -124 -2 -229 -6 -232 -3 -4 -108 -7 -234
-7 l-227 -1 -3 -232 -2 -233 -232 -2 -233 -3 0 -230 0 -230 233 -3 232 -2 0
235 0 235 235 0 235 0 1 33 c0 17 1 122 1 232 l0 201 217 -1 c119 0 223 1 232
3 15 3 16 29 15 229 0 124 2 227 7 230 4 2 109 4 232 4 l225 0 1 52 c0 29 1
239 1 468 l0 417 437 0 c240 0 450 1 467 1 l32 1 0 230 c1 171 -2 230 -11 231
-7 0 -217 1 -467 2 l-455 2 -1 232 -1 232 206 0 c113 0 218 0 232 0 l27 1 0
203 c1 111 1 217 1 235 l1 32 234 0 234 0 1 465 0 465 -235 0 c-216 0 -234 -1
-235 -17 0 -10 -1 -219 -1 -465 l-1 -448 -233 0 -232 0 0 438 c-1 240 -1 449
-1 465 l-1 27 -464 0 -464 0 0 230 c0 127 3 230 7 231 3 0 209 2 458 2 248 1
454 5 458 9 6 5 9 313 6 438 l-1 26 -457 -2 c-252 -1 -461 -2 -465 -3 -4 0 -7
-83 -7 -183 0 -101 0 -206 0 -234 l-1 -50 -232 0 -233 1 -3 -233 -2 -232 -230
0 c-177 0 -230 3 -231 13 -1 6 -2 213 -3 459 0 245 -5 450 -9 455 -9 8 -444
13 -452 4z m1861 -2097 l1 -701 -701 1 -701 1 0 693 c0 523 3 695 12 700 6 4
321 7 700 7 l688 -1 1 -700z"/>
<path d="M3260 3505 c0 -150 4 -235 10 -236 63 -3 453 0 456 4 5 4 8 323 5
440 l-1 27 -235 0 -235 0 0 -235z"/>
<path d="M6534 4201 c-2 -2 -4 -107 -4 -232 l0 -229 -232 -2 -233 -3 -1 -232
c-1 -162 2 -233 10 -234 12 0 344 0 414 1 l42 0 0 235 0 235 235 0 235 0 -2
232 -3 233 -228 0 c-126 0 -231 -2 -233 -4z"/>
<path d="M0 3035 l0 -231 233 -1 232 0 0 233 0 233 -232 -1 -233 -1 0 -232z"/>
<path d="M1399 3266 c-7 -7 -3 -919 4 -923 14 -8 447 -7 455 2 4 4 7 213 8
465 l0 459 -233 -1 c-128 0 -234 -1 -234 -2z"/>
<path d="M5604 3259 c-7 -13 -8 -435 0 -447 6 -10 455 -13 457 -3 3 20 4 438
1 448 -4 14 -449 16 -458 2z"/>
<path d="M2347 1872 c-15 -3 -17 -26 -17 -237 l0 -233 465 -1 465 0 -2 237 -3
236 -446 1 c-245 0 -453 -1 -462 -3z"/>
</g>
</svg>
