<?xml version="1.0" standalone="no"?><!DOCTYPE svg PUBLIC "-//W3C//DTD SVG 20010904//EN" "http://www.w3.org/TR/2001/REC-SVG-20010904/DTD/svg10.dtd"><svg version="1.0" xmlns="http://www.w3.org/2000/svg" width="698.000000pt" height="698.000000pt" viewBox="0 0 698.000000 698.000000" preserveAspectRatio="xMidYMid meet"> <g transform="translate(0.000000,698.000000) scale(0.100000,-0.100000)" fill="#000000" stroke="none"> <path d="M3685 6034 c-33 -14 -69 -29 -80 -34 -11 -5 -45 -19 -75 -31 -30 -13 -58 -28 -62 -33 -4 -6 -8 -8 -8 -5 0 7 -108 -13 -155 -28 -27 -9 -102 -29 -145 -38 -29 -6 -195 -47 -208 -51 -7 -2 -16 -4 -20 -5 -4 -1 -29 -9 -57 -17 -42 -13 -131 -16 -550 -17 -457 -2 -540 -6 -695 -30 -14 -2 -47 -7 -75 -10 -52 -5 -112 -13 -155 -20 -14 -2 -52 -7 -85 -11 -33 -3 -69 -8 -80 -10 -11 -2 -42 -6 -70 -9 -56 -7 -54 -6 -265 -70 -85 -26 -159 -48 -165 -49 -102 -24 -158 -57 -270 -159 -11 -10 -51 -44 -90 -75 -38 -31 -83 -70 -98 -87 -27 -28 -122 -190 -134 -227 -3 -10 -10 -18 -16 -18 -6 0 -7 -3 -4 -7 4 -3 3 -11 -2 -17 -4 -6 -23 -38 -41 -71 -18 -33 -44 -79 -57 -103 l-24 -43 23 5 c13 2 30 7 38 10 8 3 26 7 40 10 21 3 91 19 182 42 131 31 149 32 238 10 14 -3 36 -8 50 -11 73 -14 126 -26 159 -34 20 -6 50 -12 66 -15 61 -11 345 -102 420 -136 61 -27 365 -123 430 -135 11 -2 56 -13 100 -25 44 -12 91 -23 104 -25 13 -2 35 -8 50 -14 23 -9 64 -18 97 -20 7 -1 25 -13 42 -28 16 -16 75 -71 132 -123 56 -52 120 -111 141 -131 37 -33 54 -69 75 -151 2 -10 6 -26 9 -35 2 -10 9 -38 16 -63 6 -25 12 -52 14 -60 2 -8 16 -55 30 -105 14 -49 28 -98 31 -107 2 -10 6 -26 8 -35 3 -10 9 -32 15 -50 5 -17 7 -34 5 -36 -3 -3 -7 -18 -9 -33 -2 -16 -4 -29 -5 -29 -2 0 -9 -33 -15 -70 -2 -16 -8 -44 -14 -62 -5 -17 -7 -33 -5 -36 3 -2 0 -16 -5 -30 -6 -14 -12 -43 -14 -64 -3 -21 -9 -56 -15 -78 -6 -22 -13 -57 -16 -79 -4 -21 -9 -43 -12 -48 -3 -5 -7 -22 -9 -36 -9 -87 -44 -220 -74 -287 -5 -11 -28 -76 -51 -145 -22 -69 -44 -132 -47 -140 -17 -45 -125 -358 -128 -374 -2 -10 -9 -24 -16 -32 -7 -8 -7 -14 -1 -14 5 0 22 17 38 37 15 21 30 40 34 43 3 3 32 39 64 80 33 41 63 79 67 84 11 13 7 -6 -36 -154 -19 -69 -37 -134 -40 -145 -2 -11 -4 -20 -5 -20 -1 0 -3 -9 -6 -20 -2 -11 -37 -139 -78 -285 -41 -146 -73 -266 -72 -268 3 -2 103 156 119 188 4 8 20 34 35 58 15 23 55 89 90 147 64 106 86 128 78 78 -5 -32 -13 -113 -21 -223 -3 -41 -8 -97 -11 -125 -5 -56 -14 -159 -19 -220 -4 -57 -16 -194 -19 -232 -2 -18 -2 -33 -1 -33 2 0 40 57 85 128 45 70 133 206 196 302 63 96 117 181 121 189 6 14 125 197 140 216 4 6 26 39 47 75 22 36 42 67 45 70 3 3 12 16 19 30 7 14 22 36 33 50 18 23 -37 -100 -72 -160 -8 -14 -19 -36 -24 -50 -6 -14 -28 -59 -49 -100 -70 -132 -106 -211 -95 -204 7 4 28 25 48 47 20 23 50 55 66 73 17 17 77 82 135 144 202 217 231 246 220 220 -12 -29 -90 -293 -85 -288 2 1 78 75 170 163 92 88 202 195 246 237 43 43 79 73 79 69 0 -10 -87 -367 -95 -388 -8 -24 3 -13 47 44 121 161 305 402 327 429 14 17 33 41 41 53 8 13 20 29 25 37 7 10 10 -87 10 -310 0 -179 2 -322 6 -318 5 6 68 209 73 237 4 18 68 220 72 224 2 2 18 -3 36 -12 46 -21 132 -60 201 -91 31 -13 57 -29 57 -33 0 -4 17 -27 38 -50 20 -22 57 -65 82 -94 25 -29 62 -71 82 -94 36 -39 38 -39 39 -15 2 47 6 85 14 135 4 28 8 66 10 85 7 82 16 167 20 200 3 19 7 59 10 89 3 29 8 57 10 61 4 7 66 -7 125 -28 8 -3 43 -13 78 -22 70 -20 71 -19 52 50 -5 19 -11 46 -14 60 -17 95 -78 385 -82 391 -4 6 45 -10 121 -42 17 -7 35 -13 40 -14 6 -2 51 -19 100 -38 97 -39 294 -113 415 -157 41 -15 88 -33 103 -39 16 -6 26 -8 24 -3 -3 4 -30 49 -61 100 -31 51 -56 95 -56 98 0 3 -15 28 -33 57 -18 29 -36 59 -40 67 -4 8 -17 31 -30 51 -29 48 -137 231 -162 278 -11 20 -26 42 -32 49 -7 7 -13 15 -13 17 0 5 41 -9 95 -34 100 -46 135 -61 139 -61 2 0 37 -15 78 -34 40 -19 102 -46 138 -61 65 -27 86 -36 214 -94 38 -17 71 -30 72 -28 3 3 -145 300 -274 552 -31 59 -34 77 -10 58 7 -6 36 -17 63 -26 28 -8 109 -36 180 -61 139 -50 135 -49 180 -61 17 -4 36 -13 44 -19 8 -6 15 -10 15 -8 1 2 8 1 16 -2 8 -3 78 -26 155 -51 77 -26 148 -51 158 -56 25 -13 22 -3 -23 67 -22 35 -40 68 -40 73 0 5 -6 16 -13 23 -11 11 -62 92 -77 123 -3 6 -17 29 -32 52 -16 24 -28 45 -28 48 0 4 -13 26 -30 50 -16 24 -30 48 -30 54 0 6 -4 11 -10 11 -5 0 -10 5 -10 11 0 6 -9 24 -21 41 -12 16 -18 32 -15 36 4 3 10 2 14 -3 4 -6 68 -51 142 -101 74 -50 194 -131 265 -179 72 -49 171 -115 220 -148 50 -33 100 -69 113 -80 33 -31 27 -10 -26 79 -26 44 -56 96 -65 115 -10 19 -26 48 -37 64 -10 17 -25 41 -33 55 -53 97 -83 150 -104 180 -12 19 -23 38 -23 41 0 4 -17 36 -38 70 -22 35 -50 84 -64 109 -14 25 -48 83 -75 130 -27 47 -56 96 -64 110 -11 20 -139 181 -159 200 -3 3 -25 30 -50 60 -25 30 -49 60 -55 66 -5 6 -28 33 -50 59 -22 27 -47 56 -55 64 -8 9 -27 32 -42 51 -14 19 -42 52 -61 73 -19 20 -33 37 -31 37 3 0 -91 88 -250 235 -60 55 -135 123 -165 151 -50 47 -213 171 -345 264 -111 79 -135 96 -162 117 -16 13 -60 45 -99 72 -38 28 -74 54 -80 58 -59 48 -164 116 -219 142 -37 17 -69 31 -71 31 -2 0 -36 15 -77 34 -40 19 -104 48 -141 65 l-68 31 -247 0 c-240 -1 -249 -1 -307 -26z"/></g></svg>
