<?xml version="1.0" standalone="no"?>
<!DOCTYPE svg PUBLIC "-//W3C//DTD SVG 20010904//EN"
 "http://www.w3.org/TR/2001/REC-SVG-20010904/DTD/svg10.dtd">
<svg version="1.0" xmlns="http://www.w3.org/2000/svg"
 width="1024.000000pt" height="1024.000000pt" viewBox="0 0 1024.000000 1024.000000"
 preserveAspectRatio="xMidYMid meet">
<metadata>
Created by potrace 1.11, written by Peter Selinger 2001-2013
</metadata>
<g transform="translate(0.000000,1024.000000) scale(0.100000,-0.100000)"
fill="#000000" stroke="none">
<path d="M5460 9900 l0 -340 -345 0 -345 0 0 -340 0 -340 -340 0 -340 0 0
-340 0 -340 -340 0 -340 0 0 -685 0 -685 -685 0 -685 0 0 -340 0 -340 -340 0
-340 0 0 -340 0 -340 -340 0 -340 0 0 -345 0 -345 -340 0 -340 0 0 -340 0
-340 340 0 340 0 0 340 0 340 340 0 340 0 0 345 0 345 340 0 340 0 0 340 0
340 685 0 685 0 0 -340 0 -340 -340 0 -340 0 0 -345 0 -345 -345 0 -345 0 0
-680 0 -680 345 0 345 0 0 680 0 680 340 0 340 0 0 -680 0 -680 680 0 680 0 0
-340 0 -340 -680 0 -680 0 0 -345 0 -345 680 0 680 0 0 345 0 345 345 0 345 0
0 340 0 340 340 0 340 0 0 -685 0 -685 -340 0 -340 0 0 -340 0 -340 -345 0
-345 0 0 -340 0 -340 -340 0 -340 0 0 -345 0 -345 340 0 340 0 0 345 0 345
345 0 345 0 0 340 0 340 340 0 340 0 0 340 0 340 340 0 340 0 0 685 0 685 685
0 685 0 0 340 0 340 340 0 340 0 0 340 0 340 340 0 340 0 0 345 0 345 345 0
345 0 0 340 0 340 -345 0 -345 0 0 -340 0 -340 -340 0 -340 0 0 -345 0 -345
-340 0 -340 0 0 -340 0 -340 -685 0 -685 0 0 340 0 340 340 0 340 0 0 345 0
345 345 0 345 0 0 680 0 680 -345 0 -345 0 0 -680 0 -680 -340 0 -340 0 0 680
0 680 -680 0 -680 0 0 340 0 340 680 0 680 0 0 345 0 345 -680 0 -680 0 0
-345 0 -345 -345 0 -345 0 0 -340 0 -340 -340 0 -340 0 0 685 0 685 340 0 340
0 0 340 0 340 345 0 345 0 0 340 0 340 340 0 340 0 0 340 0 340 -340 0 -340 0
0 -340z m680 -4775 l0 -1025 -1025 0 -1025 0 0 1025 0 1025 1025 0 1025 0 0
-1025z"/>
<path d="M4770 5125 l0 -345 345 0 345 0 0 345 0 345 -345 0 -345 0 0 -345z"/>
</g>
</svg>
